<svg width="64" height="64" viewBox="0 0 64 64" fill="none" xmlns="http://www.w3.org/2000/svg">
<rect width="64" height="64" rx="7" fill="white"/>
<path d="M10.4987 11.0001C10.4224 11.0015 10.3475 11.0201 10.2794 11.0545C10.2114 11.0888 10.1519 11.138 10.1054 11.1984C10.0589 11.2589 10.0266 11.329 10.0109 11.4036C9.9952 11.4782 9.99647 11.5554 10.0146 11.6294L20.9878 56.0467C21.0093 56.1333 21.0531 56.2127 21.1149 56.2769C21.1767 56.3412 21.2543 56.388 21.3399 56.4128C21.4255 56.4376 21.5162 56.4395 21.6027 56.4182C21.6893 56.3969 21.7687 56.3532 21.8331 56.2915L54.8445 24.5378C54.9087 24.4759 54.9554 24.3983 54.9801 24.3126C55.0048 24.2269 55.0065 24.1363 54.9851 24.0497C54.9637 23.9632 54.9199 23.8838 54.8581 23.8195C54.7963 23.7552 54.7187 23.7084 54.633 23.6836L10.6475 11.0199C10.5992 11.0058 10.549 10.9991 10.4987 11.0001ZM11.2112 12.2389L53.5062 24.4159L21.7634 54.9492L11.2112 12.2389Z" fill="black"/>
<path d="M32.5038 17.3328C32.437 17.3314 32.3705 17.3432 32.3082 17.3675C32.2459 17.3918 32.189 17.4281 32.1408 17.4745L15.6427 33.3558C15.5787 33.4177 15.532 33.4954 15.5074 33.581C15.4828 33.6667 15.4812 33.7573 15.5026 33.8438C15.5241 33.9302 15.5679 34.0096 15.6297 34.0738C15.6915 34.138 15.769 34.1848 15.8546 34.2096L37.833 40.5441C37.9186 40.5687 38.0091 40.5703 38.0955 40.5488C38.1819 40.5274 38.2612 40.4836 38.3254 40.4219C38.3896 40.3602 38.4364 40.2827 38.4612 40.1971C38.486 40.1116 38.488 40.0211 38.4668 39.9346L32.9865 17.7187C32.9596 17.6103 32.8978 17.5138 32.8105 17.444C32.7233 17.3742 32.6155 17.3351 32.5038 17.3328ZM32.211 18.8172L37.2707 39.3251L16.9814 33.4773L32.211 18.8172Z" fill="black"/>
<path d="M24.3064 25.1928C24.2302 25.1942 24.1552 25.2128 24.0872 25.2471C24.0191 25.2814 23.9596 25.3306 23.9131 25.3911C23.8666 25.4515 23.8344 25.5216 23.8186 25.5962C23.8029 25.6708 23.8042 25.748 23.8224 25.8221L26.5457 36.8569C26.567 36.9436 26.6108 37.0231 26.6726 37.0875C26.7344 37.1518 26.8121 37.1987 26.8979 37.2235C26.9836 37.2483 27.0744 37.25 27.161 37.2285C27.2477 37.2071 27.3271 37.1631 27.3913 37.1012L35.5882 29.2008C35.6523 29.1388 35.6989 29.0611 35.7235 28.9754C35.748 28.8898 35.7496 28.7992 35.7281 28.7127C35.7066 28.6262 35.6628 28.5469 35.6009 28.4827C35.5391 28.4185 35.4615 28.3717 35.3759 28.347L24.4553 25.2126C24.407 25.1984 24.3567 25.1917 24.3064 25.1928ZM25.0185 26.4302L34.2499 29.0798L27.3203 35.758L25.0185 26.4302Z" fill="black"/>
<path d="M21.6019 14.17C21.535 14.1686 21.4685 14.1805 21.4062 14.2049C21.3439 14.2293 21.2871 14.2657 21.2389 14.3122L13.0421 22.2121C12.978 22.2741 12.9313 22.3518 12.9068 22.4374C12.8822 22.5231 12.8806 22.6137 12.9021 22.7002C12.9236 22.7867 12.9675 22.866 13.0293 22.9302C13.0911 22.9944 13.1688 23.0412 13.2544 23.0659L24.1732 26.2008C24.2588 26.2252 24.3493 26.2268 24.4357 26.2053C24.5221 26.1838 24.6014 26.1399 24.6655 26.0782C24.7296 26.0164 24.7764 25.9389 24.8012 25.8533C24.8259 25.7678 24.8278 25.6773 24.8065 25.5908L22.0846 14.5564C22.0579 14.4478 21.9961 14.3511 21.9089 14.2811C21.8216 14.2112 21.7137 14.1724 21.6019 14.17ZM21.3095 15.6545L23.61 24.9822L14.3808 22.3327L21.3095 15.6545ZM43.4417 20.4605C43.3749 20.4592 43.3085 20.471 43.2463 20.4954C43.1841 20.5198 43.1273 20.5562 43.0792 20.6026L34.8814 28.5021C34.8171 28.564 34.7702 28.6417 34.7455 28.7275C34.7208 28.8132 34.7191 28.904 34.7407 28.9906C34.7622 29.0772 34.8062 29.1566 34.8681 29.2208C34.9301 29.285 35.0079 29.3318 35.0937 29.3563L46.013 32.4908C46.0986 32.5152 46.1891 32.5168 46.2755 32.4953C46.3619 32.4738 46.4412 32.4299 46.5053 32.3682C46.5694 32.3064 46.6162 32.2289 46.641 32.1433C46.6657 32.0578 46.6676 31.9673 46.6463 31.8808L43.9248 20.8464C43.898 20.7378 43.8362 20.6411 43.7488 20.5713C43.6615 20.5014 43.5535 20.4627 43.4417 20.4605ZM43.1493 21.9449L45.4498 31.2731L36.2206 28.6236L43.1493 21.9449ZM27.0188 36.2365C26.8942 36.2413 26.7757 36.2918 26.6859 36.3782L18.4891 44.2786C18.425 44.3406 18.3784 44.4183 18.3538 44.5039C18.3292 44.5896 18.3276 44.6802 18.3491 44.7667C18.3706 44.8532 18.4145 44.9325 18.4763 44.9967C18.5382 45.0609 18.6158 45.1077 18.7014 45.1324L29.6224 48.2668C29.708 48.2912 29.7984 48.2926 29.8847 48.2711C29.971 48.2496 30.0501 48.2058 30.1141 48.1441C30.1782 48.0824 30.225 48.005 30.2497 47.9195C30.2745 47.8341 30.2764 47.7437 30.2553 47.6573L27.5316 36.6225C27.5035 36.509 27.4372 36.4086 27.3438 36.3383C27.2504 36.268 27.1356 36.2321 27.0188 36.2365ZM26.757 37.721L29.0592 47.0491L19.8278 44.3996L26.757 37.721Z" fill="black"/>
</svg>
